<svg xmlns="http://www.w3.org/2000/svg" viewBox="0 0 200 200" width="200" height="200">
  <defs>
    <linearGradient id="bookGradient" x1="0%" y1="0%" x2="100%" y2="100%">
      <stop offset="0%" style="stop-color:#4299e1;stop-opacity:1" />
      <stop offset="100%" style="stop-color:#3182ce;stop-opacity:1" />
    </linearGradient>
  </defs>
  
  <!-- Book cover -->
  <rect x="60" y="50" width="80" height="100" rx="5" fill="url(#bookGradient)" stroke="#2d3748" stroke-width="2"/>
  
  <!-- Book spine -->
  <rect x="55" y="55" width="10" height="90" rx="2" fill="#2d3748"/>
  
  <!-- Book pages -->
  <rect x="62" y="52" width="76" height="96" rx="3" fill="#f7fafc" stroke="#e2e8f0" stroke-width="1"/>
  
  <!-- Text lines -->
  <line x1="70" y1="70" x2="120" y2="70" stroke="#4a5568" stroke-width="2"/>
  <line x1="70" y1="85" x2="130" y2="85" stroke="#718096" stroke-width="1"/>
  <line x1="70" y1="95" x2="125" y2="95" stroke="#718096" stroke-width="1"/>
  <line x1="70" y1="105" x2="130" y2="105" stroke="#718096" stroke-width="1"/>
  <line x1="70" y1="115" x2="115" y2="115" stroke="#718096" stroke-width="1"/>
  <line x1="70" y1="125" x2="128" y2="125" stroke="#718096" stroke-width="1"/>
  <line x1="70" y1="135" x2="120" y2="135" stroke="#718096" stroke-width="1"/>
  
  <!-- Psychology symbol -->
  <circle cx="100" cy="75" r="8" fill="none" stroke="#667eea" stroke-width="2"/>
  <path d="M100 67 L100 83 M92 75 L108 75" stroke="#667eea" stroke-width="2"/>
</svg>
