<svg xmlns="http://www.w3.org/2000/svg" viewBox="0 0 200 200" width="200" height="200">
  <defs>
    <linearGradient id="brainGradient" x1="0%" y1="0%" x2="100%" y2="100%">
      <stop offset="0%" style="stop-color:#667eea;stop-opacity:1" />
      <stop offset="100%" style="stop-color:#764ba2;stop-opacity:1" />
    </linearGradient>
  </defs>
  
  <!-- Brain outline -->
  <path d="M100 40 C120 40, 140 50, 150 70 C160 90, 155 110, 150 130 C145 150, 130 160, 110 160 L90 160 C70 160, 55 150, 50 130 C45 110, 40 90, 50 70 C60 50, 80 40, 100 40 Z" 
        fill="url(#brainGradient)" 
        stroke="#4a5568" 
        stroke-width="2"/>
  
  <!-- Brain divisions -->
  <path d="M100 40 C100 60, 100 80, 100 100 C100 120, 100 140, 100 160" 
        stroke="#4a5568" 
        stroke-width="1.5" 
        fill="none"/>
  
  <path d="M50 70 C70 85, 90 95, 100 100 C110 95, 130 85, 150 70" 
        stroke="#4a5568" 
        stroke-width="1.5" 
        fill="none"/>
  
  <!-- Neural connections -->
  <circle cx="75" cy="80" r="3" fill="#f7fafc"/>
  <circle cx="125" cy="80" r="3" fill="#f7fafc"/>
  <circle cx="85" cy="110" r="3" fill="#f7fafc"/>
  <circle cx="115" cy="110" r="3" fill="#f7fafc"/>
  <circle cx="100" cy="140" r="3" fill="#f7fafc"/>
  
  <!-- Connection lines -->
  <line x1="75" y1="80" x2="85" y2="110" stroke="#f7fafc" stroke-width="1"/>
  <line x1="125" y1="80" x2="115" y2="110" stroke="#f7fafc" stroke-width="1"/>
  <line x1="85" y1="110" x2="100" y2="140" stroke="#f7fafc" stroke-width="1"/>
  <line x1="115" y1="110" x2="100" y2="140" stroke="#f7fafc" stroke-width="1"/>
</svg>
