<svg xmlns="http://www.w3.org/2000/svg" viewBox="0 0 32 32" width="32" height="32">
  <defs>
    <linearGradient id="faviconGradient" x1="0%" y1="0%" x2="100%" y2="100%">
      <stop offset="0%" style="stop-color:#667eea;stop-opacity:1" />
      <stop offset="100%" style="stop-color:#764ba2;stop-opacity:1" />
    </linearGradient>
  </defs>
  
  <!-- Brain outline -->
  <path d="M16 6 C20 6, 24 8, 26 12 C28 16, 27 20, 26 24 C25 28, 22 30, 18 30 L14 30 C10 30, 7 28, 6 24 C5 20, 4 16, 6 12 C8 8, 12 6, 16 6 Z" 
        fill="url(#faviconGradient)"/>
  
  <!-- Brain divisions -->
  <path d="M16 6 C16 12, 16 18, 16 24 C16 26, 16 28, 16 30" 
        stroke="#2d3748" 
        stroke-width="1" 
        fill="none"/>
  
  <path d="M6 12 C10 15, 14 17, 16 18 C18 17, 22 15, 26 12" 
        stroke="#2d3748" 
        stroke-width="1" 
        fill="none"/>
  
  <!-- Neural connections -->
  <circle cx="12" cy="14" r="1" fill="#f7fafc"/>
  <circle cx="20" cy="14" r="1" fill="#f7fafc"/>
  <circle cx="14" cy="20" r="1" fill="#f7fafc"/>
  <circle cx="18" cy="20" r="1" fill="#f7fafc"/>
</svg>
