<svg xmlns="http://www.w3.org/2000/svg" viewBox="0 0 200 200" width="200" height="200">
  <defs>
    <linearGradient id="scienceGradient" x1="0%" y1="0%" x2="100%" y2="100%">
      <stop offset="0%" style="stop-color:#38b2ac;stop-opacity:1" />
      <stop offset="100%" style="stop-color:#319795;stop-opacity:1" />
    </linearGradient>
  </defs>
  
  <!-- Flask base -->
  <path d="M80 120 L90 90 L90 70 L110 70 L110 90 L120 120 C125 130, 120 140, 110 140 L90 140 C80 140, 75 130, 80 120 Z" 
        fill="url(#scienceGradient)" 
        stroke="#2d3748" 
        stroke-width="2"/>
  
  <!-- Flask neck -->
  <rect x="95" y="60" width="10" height="15" fill="#4a5568"/>
  
  <!-- Flask rim -->
  <ellipse cx="100" cy="60" rx="8" ry="3" fill="#4a5568"/>
  
  <!-- Bubbles -->
  <circle cx="95" cy="100" r="3" fill="#f7fafc" opacity="0.8"/>
  <circle cx="105" cy="110" r="2" fill="#f7fafc" opacity="0.6"/>
  <circle cx="100" cy="125" r="2.5" fill="#f7fafc" opacity="0.7"/>
  <circle cx="90" cy="130" r="2" fill="#f7fafc" opacity="0.5"/>
  
  <!-- Measurement marks -->
  <line x1="75" y1="90" x2="80" y2="90" stroke="#2d3748" stroke-width="1"/>
  <line x1="75" y1="100" x2="80" y2="100" stroke="#2d3748" stroke-width="1"/>
  <line x1="75" y1="110" x2="80" y2="110" stroke="#2d3748" stroke-width="1"/>
  <line x1="75" y1="120" x2="80" y2="120" stroke="#2d3748" stroke-width="1"/>
  <line x1="75" y1="130" x2="80" y2="130" stroke="#2d3748" stroke-width="1"/>
  
  <!-- Atoms around -->
  <circle cx="140" cy="80" r="15" fill="none" stroke="#667eea" stroke-width="2"/>
  <circle cx="140" cy="80" r="3" fill="#667eea"/>
  <circle cx="130" cy="75" r="2" fill="#e53e3e"/>
  <circle cx="150" cy="85" r="2" fill="#e53e3e"/>
  
  <circle cx="60" cy="120" r="12" fill="none" stroke="#38a169" stroke-width="2"/>
  <circle cx="60" cy="120" r="2" fill="#38a169"/>
  <circle cx="52" cy="115" r="1.5" fill="#d69e2e"/>
  <circle cx="68" cy="125" r="1.5" fill="#d69e2e"/>
</svg>
